<?xml version="1.0" standalone="no"?>
<!DOCTYPE svg PUBLIC "-//W3C//DTD SVG 20010904//EN"
 "http://www.w3.org/TR/2001/REC-SVG-20010904/DTD/svg10.dtd">
<svg version="1.0" xmlns="http://www.w3.org/2000/svg"
 width="408.000000pt" height="408.000000pt" viewBox="0 0 408.000000 408.000000"
 preserveAspectRatio="xMidYMid meet">
<metadata>
Created by potrace 1.11, written by Peter Selinger 2001-2013
</metadata>
<g transform="translate(0.000000,408.000000) scale(0.100000,-0.100000)"
fill="#000000" stroke="none">
<path d="M2006 4023 c-2 -3 -24 -6 -48 -8 -128 -11 -159 -14 -170 -22 -7 -4
-22 -8 -33 -8 -29 -2 -78 -16 -92 -28 -7 -5 -13 -7 -13 -3 0 3 -26 -6 -57 -20
-32 -14 -62 -27 -68 -28 -112 -23 -438 -294 -530 -441 -21 -33 -43 -63 -49
-67 -6 -4 -7 -8 -3 -8 5 0 -2 -14 -14 -31 -25 -35 -79 -139 -73 -139 2 0 -4
-17 -15 -37 -28 -57 -67 -185 -77 -258 -2 -16 -6 -46 -9 -65 -10 -61 -11 -304
-2 -345 5 -22 11 -53 12 -70 2 -16 4 -30 5 -30 1 0 3 -9 5 -20 2 -11 6 -31 10
-45 3 -14 7 -32 9 -40 6 -43 67 -224 104 -310 6 -14 21 -54 33 -90 12 -36 26
-73 31 -83 5 -10 12 -31 14 -45 3 -15 10 -32 16 -39 6 -7 7 -13 2 -13 -4 0 -3
-5 4 -12 7 -7 12 -21 12 -33 0 -12 5 -26 12 -33 7 -7 9 -12 5 -12 -4 0 -1 -15
7 -34 8 -19 13 -36 10 -38 -2 -3 1 -20 7 -39 13 -43 20 -76 23 -115 3 -25 -4
-37 -42 -70 -61 -53 -87 -117 -84 -209 1 -50 6 -85 17 -108 5 -13 0 -34 -17
-67 -22 -42 -25 -59 -21 -122 6 -99 5 -98 13 -98 4 0 13 -15 20 -32 7 -18 25
-46 40 -63 27 -29 42 -69 44 -110 1 -11 11 -42 24 -69 12 -27 22 -52 22 -57 0
-5 5 -9 10 -9 6 0 10 -6 10 -14 0 -22 120 -140 176 -172 27 -15 51 -31 54 -34
3 -3 14 -7 25 -8 11 -2 25 -7 30 -12 31 -24 206 -40 300 -27 156 21 328 122
373 217 16 35 29 48 46 48 5 0 12 4 15 9 3 4 23 21 45 37 54 41 92 106 113
194 9 43 23 83 30 90 17 18 46 72 51 97 7 29 6 64 -2 112 -6 39 -3 48 33 102
93 136 153 205 430 486 188 192 381 421 381 453 0 5 6 15 14 21 16 14 74 131
101 206 10 28 23 56 28 63 5 7 7 15 4 18 -3 3 1 22 9 41 9 19 13 38 10 40 -3
3 -1 14 5 24 5 11 12 40 15 67 7 66 12 385 5 397 -3 5 -6 16 -7 25 -3 35 -15
98 -26 135 -6 22 -11 43 -10 47 1 4 -5 27 -14 50 -109 294 -243 481 -457 639
-65 49 -198 131 -217 135 -3 0 -18 6 -35 13 -16 7 -31 12 -32 12 -2 0 -27 11
-57 24 -30 13 -56 21 -60 18 -3 -3 -11 -1 -18 4 -13 10 -52 22 -93 29 -11 1
-31 6 -45 9 -14 4 -41 9 -60 11 -19 2 -60 6 -90 9 -84 9 -169 13 -174 8z m209
-223 c0 -2 6 -3 75 -13 19 -3 46 -10 60 -15 14 -5 27 -10 30 -10 15 -1 69 -17
97 -29 18 -7 35 -13 38 -13 19 1 193 -100 244 -141 34 -27 64 -49 69 -50 19
-1 235 -279 217 -279 -4 0 3 -12 14 -26 12 -15 21 -31 21 -36 0 -6 6 -24 14
-41 20 -45 47 -119 52 -139 2 -10 7 -28 10 -40 3 -13 7 -32 8 -43 2 -11 4 -20
6 -20 6 0 23 -186 22 -235 -3 -77 -10 -166 -16 -192 -3 -16 -8 -40 -12 -55 -7
-36 -9 -42 -22 -76 -7 -16 -12 -34 -12 -41 0 -6 -5 -17 -12 -24 -7 -7 -9 -12
-4 -12 4 0 1 -12 -7 -27 -8 -16 -27 -53 -42 -83 -65 -134 -182 -276 -474 -576
-243 -250 -292 -308 -391 -460 -22 -34 -50 -65 -63 -69 -12 -4 -29 -9 -37 -12
-25 -8 -151 -9 -163 -1 -6 4 -20 2 -30 -4 -23 -12 -27 -31 36 184 24 81 48
153 54 160 6 7 11 16 11 21 1 18 15 73 22 82 4 6 8 17 8 25 0 17 8 52 17 80 3
10 8 27 10 37 2 10 8 37 13 61 5 23 8 42 5 42 -3 0 0 6 6 14 11 13 15 27 26
91 3 17 8 37 10 45 2 8 7 29 10 45 2 17 7 40 9 52 7 34 -32 139 -61 165 -14
13 -34 31 -44 41 -30 27 -61 36 -116 32 -102 -6 -200 -88 -218 -181 -2 -16 -7
-40 -10 -54 -3 -14 -8 -36 -10 -50 -2 -14 -7 -41 -11 -60 -3 -19 -12 -53 -20
-75 -19 -51 -23 -67 -49 -175 -2 -8 -8 -30 -14 -47 -5 -18 -7 -33 -4 -33 3 0
0 -7 -7 -15 -7 -8 -10 -15 -7 -15 4 0 0 -18 -8 -40 -8 -22 -12 -40 -9 -40 2 0
-3 -12 -13 -27 -9 -14 -18 -31 -19 -37 -1 -6 -8 -31 -15 -56 -12 -41 -14 -51
-18 -65 0 -3 -1 -7 -1 -10 1 -12 -31 -65 -39 -65 -11 0 -91 90 -88 99 1 3 -25
32 -58 63 l-59 58 -2 72 c-1 40 -4 84 -8 98 -3 13 -8 42 -11 63 -4 22 -10 50
-15 63 -5 13 -8 24 -5 24 2 0 -3 19 -11 43 -9 23 -18 53 -20 67 -3 13 -9 29
-13 35 -4 5 -13 30 -20 55 -7 25 -17 54 -21 65 -28 70 -60 163 -60 176 0 8 -4
19 -9 25 -7 8 -48 131 -55 167 -2 7 -8 30 -14 52 -6 22 -13 56 -16 75 -2 19
-7 46 -11 60 -9 35 -13 243 -5 255 4 6 8 17 8 25 3 35 10 95 12 98 2 1 4 7 5
12 1 6 3 11 5 13 1 1 3 11 5 21 8 40 15 63 32 102 10 21 18 44 18 49 1 12 84
178 93 185 4 3 12 12 17 21 68 108 198 243 302 312 65 43 183 107 207 111 30
6 102 30 112 38 6 4 35 10 63 13 29 3 59 8 67 13 11 6 319 9 319 2z m-893
-2724 c4 3 8 1 8 -5 0 -11 66 -48 155 -86 22 -9 49 -21 60 -26 21 -9 76 -31
85 -34 66 -20 107 -32 138 -39 9 -3 17 -5 17 -7 0 -2 15 -4 66 -12 14 -2 31
-7 38 -12 18 -10 231 -14 258 -4 13 5 25 4 29 -2 17 -29 -77 -78 -165 -86
-104 -9 -284 -2 -321 13 -8 3 -33 8 -55 10 -22 3 -44 9 -49 15 -6 5 -19 9 -29
9 -18 0 -45 10 -127 48 -19 8 -37 16 -40 17 -14 2 -112 64 -160 101 -61 46
-89 76 -107 114 -25 54 -23 75 10 128 6 9 33 -10 94 -67 48 -44 90 -78 95 -75z
m-189 -256 c18 -16 38 -30 45 -30 6 0 12 -4 12 -8 0 -7 133 -77 195 -102 11
-5 41 -18 68 -29 26 -11 47 -18 47 -15 0 3 10 -1 22 -7 13 -7 34 -14 48 -16
30 -4 65 -11 65 -13 0 -1 11 -3 25 -6 14 -2 39 -7 55 -10 34 -7 301 -10 327
-3 24 6 21 -14 -5 -28 -53 -28 -92 -41 -110 -37 -11 2 -25 0 -31 -5 -11 -8
-127 -6 -206 4 -37 4 -111 19 -197 38 -7 2 -16 6 -19 10 -4 4 -15 7 -24 7 -10
0 -33 6 -51 14 -19 8 -37 13 -40 13 -4 -1 -16 7 -28 17 -12 11 -21 16 -21 12
0 -7 -16 3 -106 60 -70 45 -114 97 -114 134 0 17 2 30 6 30 3 0 19 -13 37 -30z"/>
<path d="M2038 2884 c-3 -3 -17 -7 -31 -9 -128 -24 -215 -195 -155 -304 47
-85 114 -128 203 -132 66 -3 156 55 191 122 13 25 27 82 26 104 -5 92 -93 195
-180 208 -17 3 -35 8 -40 11 -5 3 -12 3 -14 0z"/>
</g>
</svg>
