<?xml version="1.0" standalone="no"?>
<!DOCTYPE svg PUBLIC "-//W3C//DTD SVG 20010904//EN"
 "http://www.w3.org/TR/2001/REC-SVG-20010904/DTD/svg10.dtd">
<svg version="1.0" xmlns="http://www.w3.org/2000/svg"
 width="300.000000pt" height="300.000000pt" viewBox="0 0 300.000000 300.000000"
 preserveAspectRatio="xMidYMid meet">
<metadata>
Created by potrace 1.11, written by Peter Selinger 2001-2013
</metadata>
<g transform="translate(0.000000,300.000000) scale(0.100000,-0.100000)"
fill="#000000" stroke="none">
<path d="M900 2855 c0 -18 5 -25 20 -25 15 0 20 7 20 25 0 18 -5 25 -20 25
-15 0 -20 -7 -20 -25z"/>
<path d="M1130 2855 c0 -18 5 -25 20 -25 15 0 20 7 20 25 0 18 -5 25 -20 25
-15 0 -20 -7 -20 -25z"/>
<path d="M760 2810 c0 -15 7 -20 25 -20 18 0 25 5 25 20 0 15 -7 20 -25 20
-18 0 -25 -5 -25 -20z"/>
<path d="M1220 2810 c0 -13 7 -20 20 -20 13 0 20 7 20 20 0 13 -7 20 -20 20
-13 0 -20 -7 -20 -20z"/>
<path d="M670 2765 c0 -18 -5 -25 -20 -25 -15 0 -20 -7 -20 -25 0 -20 -5 -25
-25 -25 -18 0 -25 -5 -25 -20 0 -15 7 -20 25 -20 18 0 25 5 25 20 0 13 7 20
20 20 15 0 20 7 20 25 0 20 5 25 25 25 20 0 25 5 25 25 0 20 -5 25 -25 25 -20
0 -25 -5 -25 -25z"/>
<path d="M1130 2715 c0 -24 -2 -25 -70 -25 -63 0 -70 -2 -70 -20 0 -15 -7 -20
-25 -20 -20 0 -25 -5 -25 -25 0 -20 5 -25 25 -25 20 0 25 5 25 25 0 24 2 25
70 25 63 0 70 2 70 20 0 19 7 20 90 20 l90 0 0 -45 c0 -41 -2 -45 -25 -45 -20
0 -25 -5 -25 -25 l0 -25 -135 0 c-128 0 -135 -1 -135 -20 0 -17 -7 -20 -45
-20 -41 0 -45 -2 -45 -25 0 -23 4 -25 45 -25 41 0 45 2 45 25 0 24 2 25 70 25
l70 0 0 -45 c0 -41 -2 -45 -25 -45 -18 0 -25 5 -25 20 0 15 -7 20 -25 20 -18
0 -25 -5 -25 -20 0 -13 -7 -20 -20 -20 -15 0 -20 -7 -20 -25 0 -24 -2 -25 -70
-25 -63 0 -70 -2 -70 -20 0 -17 -7 -20 -45 -20 -41 0 -45 -2 -45 -25 0 -23 -4
-25 -45 -25 -38 0 -45 -3 -45 -20 0 -17 -7 -20 -45 -20 -41 0 -45 -2 -45 -25
0 -18 -5 -25 -20 -25 -13 0 -20 -7 -20 -20 0 -17 -7 -20 -45 -20 -41 0 -45 -2
-45 -25 0 -20 -5 -25 -25 -25 -18 0 -25 -5 -25 -20 0 -15 -7 -20 -25 -20 -18
0 -25 5 -25 20 0 13 -7 20 -20 20 -17 0 -20 -7 -20 -45 0 -41 -2 -45 -25 -45
-18 0 -25 -5 -25 -20 0 -15 -7 -20 -25 -20 -20 0 -25 -5 -25 -25 0 -18 -5 -25
-20 -25 -17 0 -20 -7 -20 -45 0 -41 -2 -45 -25 -45 -23 0 -25 -4 -25 -45 0
-38 -3 -45 -20 -45 -20 0 -20 -7 -20 -620 0 -613 0 -620 20 -620 17 0 20 -7
20 -45 0 -41 2 -45 25 -45 20 0 25 -5 25 -25 0 -18 5 -25 20 -25 13 0 20 -7
20 -20 0 -15 7 -20 25 -20 20 0 25 -5 25 -25 0 -23 4 -25 45 -25 38 0 45 -3
45 -20 0 -15 7 -20 25 -20 20 0 25 -5 25 -25 0 -23 4 -25 45 -25 38 0 45 -3
45 -20 0 -17 7 -20 45 -20 41 0 45 -2 45 -25 l0 -25 275 0 275 0 0 25 c0 24 2
25 65 25 58 0 65 2 65 20 0 19 7 20 95 20 95 0 95 0 95 25 0 24 2 25 70 25 63
0 70 2 70 20 0 18 7 20 65 20 63 0 65 1 65 25 0 23 4 25 45 25 38 0 45 3 45
20 0 17 7 20 45 20 41 0 45 2 45 25 0 23 4 25 45 25 38 0 45 3 45 20 0 17 7
20 45 20 41 0 45 2 45 25 0 23 3 25 50 25 47 0 50 2 50 25 0 23 4 25 45 25 38
0 45 3 45 20 0 17 7 20 45 20 41 0 45 2 45 25 0 20 5 25 25 25 20 0 25 5 25
25 0 23 4 25 45 25 38 0 45 3 45 20 0 15 7 20 25 20 20 0 25 5 25 25 0 18 5
25 20 25 13 0 20 7 20 20 0 15 7 20 25 20 23 0 25 3 25 50 0 43 3 50 20 50 20
0 20 7 20 340 l0 340 25 0 c18 0 25 5 25 20 0 13 7 20 20 20 15 0 20 7 20 25
0 23 4 25 45 25 l45 0 0 45 c0 38 -3 45 -20 45 -13 0 -20 -7 -20 -20 0 -17 -7
-20 -45 -20 -41 0 -45 -2 -45 -25 l0 -25 -160 0 -160 0 0 -25 0 -25 135 0
c128 0 135 -1 135 -20 0 -13 -7 -20 -20 -20 -15 0 -20 -7 -20 -25 l0 -25 -140
0 -140 0 0 -25 c0 -25 0 -25 95 -25 88 0 95 -1 95 -20 0 -19 -7 -20 -165 -20
l-165 0 0 -25 c0 -23 4 -25 45 -25 38 0 45 -3 45 -20 0 -19 -7 -20 -135 -20
l-135 0 0 -25 c0 -18 5 -25 20 -25 13 0 20 -7 20 -20 0 -13 -7 -20 -20 -20
-15 0 -20 -7 -20 -25 l0 -25 -115 0 c-108 0 -115 -1 -115 -20 0 -17 7 -20 45
-20 41 0 45 -2 45 -25 0 -23 -4 -25 -45 -25 -38 0 -45 -3 -45 -20 0 -17 -7
-20 -45 -20 l-45 0 0 -45 c0 -38 -3 -45 -20 -45 -15 0 -20 -7 -20 -25 0 -23
-4 -25 -45 -25 -38 0 -45 -3 -45 -20 0 -19 -7 -20 -95 -20 -88 0 -95 1 -95 20
0 13 -7 20 -20 20 -19 0 -20 7 -20 90 0 83 1 90 20 90 18 0 20 7 20 70 0 68 1
70 25 70 23 0 25 4 25 45 0 41 2 45 25 45 18 0 25 5 25 20 0 13 7 20 20 20 17
0 20 7 20 45 0 41 2 45 25 45 23 0 25 3 25 50 0 43 3 50 20 50 17 0 20 7 20
45 0 41 2 45 25 45 23 0 25 4 25 45 0 38 3 45 20 45 17 0 20 7 20 45 0 41 2
45 25 45 20 0 25 5 25 25 0 18 5 25 20 25 15 0 20 7 20 25 0 23 -4 25 -45 25
-41 0 -45 -2 -45 -25 0 -24 -2 -25 -65 -25 -63 0 -65 -1 -65 -25 0 -20 -5 -25
-25 -25 -18 0 -25 -5 -25 -20 0 -17 -7 -20 -45 -20 -41 0 -45 -2 -45 -25 0
-23 -4 -25 -45 -25 -38 0 -45 -3 -45 -20 0 -17 -7 -20 -50 -20 -47 0 -50 -2
-50 -25 0 -23 -4 -25 -45 -25 -41 0 -45 -2 -45 -25 0 -18 -5 -25 -20 -25 -13
0 -20 -7 -20 -20 0 -17 -7 -20 -50 -20 -47 0 -50 -2 -50 -25 0 -18 -5 -25 -20
-25 -15 0 -20 -7 -20 -25 0 -23 -4 -25 -45 -25 -38 0 -45 -3 -45 -20 0 -15 -7
-20 -25 -20 -20 0 -25 -5 -25 -25 0 -18 -5 -25 -20 -25 -13 0 -20 -7 -20 -20
0 -15 -7 -20 -25 -20 -20 0 -25 -5 -25 -25 0 -23 -4 -25 -45 -25 -41 0 -45 2
-45 25 0 18 -5 25 -20 25 -13 0 -20 7 -20 20 0 17 -7 20 -45 20 -41 0 -45 2
-45 25 0 20 -5 25 -25 25 -18 0 -25 5 -25 20 0 17 -7 20 -45 20 -41 0 -45 2
-45 25 0 23 -4 25 -45 25 -41 0 -45 2 -45 25 0 23 -3 25 -50 25 l-50 0 0 45
c0 38 -3 45 -20 45 -18 0 -20 7 -20 70 0 63 2 70 20 70 13 0 20 7 20 20 0 15
7 20 25 20 20 0 25 5 25 25 0 20 5 25 25 25 20 0 25 5 25 25 0 18 5 25 20 25
13 0 20 7 20 20 0 15 7 20 25 20 20 0 25 5 25 25 0 20 5 25 25 25 18 0 25 5
25 20 0 17 7 20 45 20 41 0 45 2 45 25 0 18 5 25 20 25 13 0 20 7 20 20 0 17
7 20 45 20 41 0 45 2 45 25 0 23 4 25 45 25 38 0 45 3 45 20 0 17 7 20 45 20
41 0 45 2 45 25 0 24 2 25 70 25 63 0 70 2 70 20 0 18 7 20 70 20 68 0 70 1
70 25 0 24 2 25 65 25 58 0 65 2 65 20 0 13 -7 20 -20 20 -15 0 -20 7 -20 25
0 18 5 25 20 25 13 0 20 7 20 20 0 15 7 20 25 20 20 0 25 5 25 25 0 20 5 25
25 25 23 0 25 4 25 45 0 41 -2 45 -25 45 -20 0 -25 5 -25 25 0 25 -1 25 -90
25 -89 0 -90 0 -90 -25z m550 -890 c0 -41 -2 -45 -25 -45 -18 0 -25 -5 -25
-20 0 -13 -7 -20 -20 -20 -18 0 -20 -7 -20 -70 0 -68 -1 -70 -25 -70 -20 0
-25 -5 -25 -25 0 -18 -5 -25 -20 -25 -17 0 -20 -7 -20 -45 0 -41 -2 -45 -25
-45 -20 0 -25 -5 -25 -25 0 -20 -5 -25 -25 -25 -20 0 -25 5 -25 25 0 20 5 25
25 25 23 0 25 4 25 45 0 41 2 45 25 45 23 0 25 4 25 45 0 38 3 45 20 45 17 0
20 7 20 50 0 47 2 50 25 50 23 0 25 4 25 45 0 38 3 45 20 45 13 0 20 7 20 20
0 15 7 20 25 20 23 0 25 -4 25 -45z m-280 -500 c0 -38 -3 -45 -20 -45 -17 0
-20 7 -20 45 0 38 3 45 20 45 17 0 20 -7 20 -45z m-1140 -115 c0 -15 -7 -20
-25 -20 -18 0 -25 5 -25 20 0 15 7 20 25 20 18 0 25 -5 25 -20z m230 0 c0 -13
-7 -20 -20 -20 -15 0 -20 -7 -20 -25 0 -20 -5 -25 -25 -25 -18 0 -25 -5 -25
-20 0 -15 -7 -20 -25 -20 -18 0 -25 5 -25 20 0 13 -7 20 -20 20 -15 0 -20 7
-20 25 0 18 5 25 20 25 15 0 20 -7 20 -25 0 -20 5 -25 25 -25 20 0 25 5 25 25
0 20 5 25 25 25 18 0 25 5 25 20 0 13 7 20 20 20 13 0 20 -7 20 -20z m870 -25
c0 -41 -2 -45 -25 -45 -23 0 -25 4 -25 45 0 41 2 45 25 45 23 0 25 -4 25 -45z
m-550 -200 c0 -20 -5 -25 -25 -25 -20 0 -25 5 -25 25 0 20 5 25 25 25 20 0 25
-5 25 -25z m40 -90 c0 -18 -5 -25 -20 -25 -15 0 -20 7 -20 25 0 18 5 25 20 25
15 0 20 -7 20 -25z m-500 -95 c0 -63 -2 -70 -20 -70 -18 0 -20 7 -20 70 0 63
2 70 20 70 18 0 20 -7 20 -70z m550 0 c0 -13 7 -20 20 -20 17 0 20 -7 20 -45
0 -41 2 -45 25 -45 20 0 25 -5 25 -25 0 -23 4 -25 45 -25 41 0 45 -2 45 -25 0
-20 5 -25 25 -25 18 0 25 -5 25 -20 0 -15 -7 -20 -25 -20 -18 0 -25 5 -25 20
0 17 -7 20 -45 20 -41 0 -45 2 -45 25 0 20 -5 25 -25 25 -20 0 -25 5 -25 25 0
18 -5 25 -20 25 -17 0 -20 7 -20 45 0 41 -2 45 -25 45 -18 0 -25 5 -25 20 0
15 7 20 25 20 18 0 25 -5 25 -20z m-550 -135 c0 -18 -5 -25 -20 -25 -15 0 -20
7 -20 25 0 18 5 25 20 25 15 0 20 -7 20 -25z"/>
<path d="M540 2575 c0 -20 -5 -25 -25 -25 -18 0 -25 -5 -25 -20 0 -15 7 -20
25 -20 18 0 25 5 25 20 0 13 7 20 20 20 15 0 20 7 20 25 0 18 -5 25 -20 25
-15 0 -20 -7 -20 -25z"/>
<path d="M1360 2485 l0 -25 225 0 225 0 0 25 0 25 -225 0 -225 0 0 -25z"/>
<path d="M450 2440 c0 -15 -7 -20 -25 -20 -20 0 -25 -5 -25 -25 0 -20 5 -25
25 -25 20 0 25 5 25 25 0 18 5 25 20 25 13 0 20 7 20 20 0 13 -7 20 -20 20
-13 0 -20 -7 -20 -20z"/>
<path d="M1860 2440 c0 -17 7 -20 45 -20 38 0 45 3 45 20 0 17 -7 20 -45 20
-38 0 -45 -3 -45 -20z"/>
<path d="M1400 2395 c0 -25 -1 -25 -90 -25 -83 0 -90 -1 -90 -20 0 -18 -7 -20
-70 -20 -68 0 -70 -1 -70 -25 0 -24 -2 -25 -70 -25 -63 0 -70 -2 -70 -20 0
-17 -7 -20 -45 -20 -41 0 -45 -2 -45 -25 0 -23 -4 -25 -45 -25 -38 0 -45 -3
-45 -20 0 -17 -7 -20 -45 -20 -41 0 -45 -2 -45 -25 0 -23 -4 -25 -45 -25 -38
0 -45 -3 -45 -20 0 -17 -7 -20 -45 -20 -41 0 -45 -2 -45 -25 0 -18 -5 -25 -20
-25 -13 0 -20 -7 -20 -20 0 -15 -7 -20 -25 -20 -20 0 -25 -5 -25 -25 0 -20 -5
-25 -25 -25 -23 0 -25 -4 -25 -45 0 -41 2 -45 25 -45 20 0 25 -5 25 -25 0 -23
4 -25 45 -25 41 0 45 2 45 25 0 23 4 25 45 25 38 0 45 3 45 20 0 15 7 20 25
20 20 0 25 5 25 25 0 23 4 25 45 25 41 0 45 2 45 25 0 18 5 25 20 25 13 0 20
7 20 20 0 17 7 20 45 20 41 0 45 2 45 25 0 23 4 25 45 25 38 0 45 3 45 20 0
15 7 20 25 20 20 0 25 5 25 25 0 24 2 25 70 25 63 0 70 2 70 20 0 18 7 20 65
20 63 0 65 1 65 25 0 24 2 25 70 25 63 0 70 2 70 20 0 19 7 20 95 20 95 0 95
0 95 25 l0 25 155 0 c148 0 155 1 155 20 0 17 -7 20 -45 20 -41 0 -45 2 -45
25 l0 25 -205 0 -205 0 0 -25z"/>
<path d="M1990 2395 c0 -20 5 -25 25 -25 20 0 25 5 25 25 0 20 -5 25 -25 25
-20 0 -25 -5 -25 -25z"/>
<path d="M2080 2350 c0 -15 7 -20 25 -20 20 0 25 -5 25 -25 0 -23 4 -25 45
-25 38 0 45 -3 45 -20 0 -19 -7 -20 -115 -20 -108 0 -115 1 -115 20 0 19 -7
20 -90 20 -83 0 -90 -1 -90 -20 0 -19 -7 -20 -90 -20 -89 0 -90 0 -90 -25 l0
-25 -115 0 c-108 0 -115 -1 -115 -20 0 -18 -7 -20 -70 -20 -68 0 -70 -1 -70
-25 0 -24 -2 -25 -65 -25 -58 0 -65 -2 -65 -20 0 -17 -7 -20 -50 -20 -47 0
-50 -2 -50 -25 0 -23 -4 -25 -45 -25 -38 0 -45 -3 -45 -20 0 -13 -7 -20 -20
-20 -15 0 -20 -7 -20 -25 0 -23 -4 -25 -45 -25 -41 0 -45 -2 -45 -25 0 -20 -5
-25 -25 -25 -18 0 -25 -5 -25 -20 0 -17 -7 -20 -45 -20 -41 0 -45 -2 -45 -25
0 -18 -5 -25 -20 -25 -13 0 -20 -7 -20 -20 0 -15 -7 -20 -25 -20 -20 0 -25 -5
-25 -25 0 -20 5 -25 25 -25 20 0 25 -5 25 -25 0 -23 4 -25 45 -25 38 0 45 -3
45 -20 0 -17 7 -20 45 -20 38 0 45 3 45 20 0 13 7 20 20 20 15 0 20 7 20 25 0
20 5 25 25 25 20 0 25 5 25 25 0 23 4 25 45 25 38 0 45 3 45 20 0 13 7 20 20
20 15 0 20 7 20 25 0 23 3 25 50 25 43 0 50 3 50 20 0 17 7 20 45 20 41 0 45
2 45 25 0 23 4 25 45 25 41 0 45 2 45 25 0 23 4 25 45 25 38 0 45 3 45 20 0
19 7 20 95 20 95 0 95 0 95 25 0 25 1 25 90 25 83 0 90 1 90 20 0 19 7 20 90
20 89 0 90 0 90 25 0 18 5 25 20 25 13 0 20 7 20 20 0 20 7 20 390 20 383 0
390 0 390 -20 0 -17 7 -20 45 -20 38 0 45 3 45 20 0 17 -7 20 -45 20 -41 0
-45 2 -45 25 l0 25 -205 0 c-198 0 -205 1 -205 20 0 18 -7 20 -70 20 -68 0
-70 1 -70 25 0 18 -5 25 -20 25 -13 0 -20 7 -20 20 0 17 -7 20 -50 20 -43 0
-50 -3 -50 -20z"/>
<path d="M350 2260 c0 -15 7 -20 25 -20 18 0 25 5 25 20 0 15 -7 20 -25 20
-18 0 -25 -5 -25 -20z"/>
<path d="M2910 2125 c0 -18 5 -25 20 -25 15 0 20 7 20 25 0 18 -5 25 -20 25
-15 0 -20 -7 -20 -25z"/>
<path d="M2730 2035 c0 -25 -1 -25 -90 -25 -83 0 -90 -1 -90 -20 0 -19 7 -20
90 -20 83 0 90 1 90 20 0 19 7 20 90 20 83 0 90 -1 90 -20 0 -13 7 -20 20 -20
17 0 20 7 20 45 l0 45 -110 0 -110 0 0 -25z"/>
<path d="M2680 1850 c0 -19 -7 -20 -90 -20 -89 0 -90 0 -90 -25 0 -25 1 -25
90 -25 89 0 90 0 90 25 0 25 1 25 90 25 83 0 90 1 90 20 0 19 -7 20 -90 20
-83 0 -90 -1 -90 -20z"/>
</g>
</svg>
